HIERARCHY
ROOT Hips
{
  OFFSET 126.406 89.8929 -60.0795
  CHANNELS 6 Xposition Yposition Zposition Zrotation Xrotation Yrotation
  JOINT ToSpine
  {
    OFFSET -2.69724 7.43032 -0.144315
    CHANNELS 3 Zrotation Xrotation Yrotation
    JOINT Spine
    {
      OFFSET -0.0310711 10.7595 1.96963
      CHANNELS 3 Zrotation Xrotation Yrotation
      JOINT Spine1
      {
        OFFSET 13.1342 3.43533 0.764692
        CHANNELS 3 Zrotation Xrotation Yrotation
        JOINT Neck
        {
          OFFSET 29.8703 7.82586 -0.130764
          CHANNELS 3 Zrotation Xrotation Yrotation
          JOINT Head
          {
            OFFSET 9.52751 0.295786 -0.907742
            CHANNELS 3 Zrotation Xrotation Yrotation
            End Site
            {
              OFFSET 16.4037 0.713936 2.7358
            }
          }
        }
        JOINT LeftShoulder
        {
          OFFSET 27.5574 4.95586 2.47156
          CHANNELS 3 Zrotation Xrotation Yrotation
          JOINT LeftArm
          {
            OFFSET 1.20734 -0.998971 20.1238
            CHANNELS 3 Zrotation Xrotation Yrotation
            JOINT LeftForeArm
            {
              OFFSET 26.8049 -0.0536703 -0.155908
              CHANNELS 3 Zrotation Xrotation Yrotation
              JOINT LeftHand
              {
                OFFSET 26.6817 0 0.320147
                CHANNELS 3 Zrotation Xrotation Yrotation
                End Site
                {
                  OFFSET 18.6119 0 0.382219
                }
              }
            }
          }
        }
        JOINT RightShoulder
        {
          OFFSET 27.5927 4.71444 -2.65209
          CHANNELS 3 Zrotation Xrotation Yrotation
          JOINT RightArm
          {
            OFFSET 2.83739 -1.17114 -18.7564
            CHANNELS 3 Zrotation Xrotation Yrotation
            JOINT RightForeArm
            {
              OFFSET 28.839 -0.0548439 1.22491
              CHANNELS 3 Zrotation Xrotation Yrotation
              JOINT RightHand
              {
                OFFSET 26.5114 0 -0.101894
                CHANNELS 3 Zrotation Xrotation Yrotation
                End Site
                {
                  OFFSET 18.2168 0 0
                }
              }
            }
          }
        }
      }
    }
  }
  JOINT LeftUpLeg
  {
    OFFSET -4.76168 -1.9167 -10.2353
    CHANNELS 3 Zrotation Xrotation Yrotation
    JOINT LeftLeg
    {
      OFFSET 2.55951 -42.0585 -8.02213
      CHANNELS 3 Zrotation Xrotation Yrotation
      JOINT LeftFoot
      {
        OFFSET 3.16357 -42.5282 -3.95426
        CHANNELS 3 Zrotation Xrotation Yrotation
        JOINT LeftToeBase
        {
          OFFSET 0.346054 -6.02161 12.8035
          CHANNELS 3 Zrotation Xrotation Yrotation
          End Site
          {
            OFFSET 0.134235 -1.35082 5.13018
          }
        }
      }
    }
  }
  JOINT RightUpLeg
  {
    OFFSET -4.94151 -1.41743 10.6446
    CHANNELS 3 Zrotation Xrotation Yrotation
    JOINT RightLeg
    {
      OFFSET -2.56294 -42.0364 -7.94377
      CHANNELS 3 Zrotation Xrotation Yrotation
      JOINT RightFoot
      {
        OFFSET -3.0952 -42.555 -4.02241
        CHANNELS 3 Zrotation Xrotation Yrotation
        JOINT RightToeBase
        {
          OFFSET -0.0828122 -6.13587 12.8035
          CHANNELS 3 Zrotation Xrotation Yrotation
          End Site
          {
            OFFSET -0.131328 -1.35082 5.13018
          }
        }
      }
    }
  }
}
MOTION
Frames:	8
Frame Time:	0.0333333
114.34 94.1106 -58.5272 -59.8513 -56.7428 -155.559 -70.1915 0 88.8779 76.4286 70.2593 17.5476 7.8248 22.0011 -5.31894 -131.666 11.0181 -165.423 -147.371 44.5373 -175.93 -1.71585 -20.7177 -36.776 -130.487 11.0885 -78.9705 12.5104 2.89238 -76.6057 0.420957 0.000577499 0.35866 -1.24686 7.88885 29.9032 -44.7488 -24.3838 156.581 13.2521 2.38486 99.6924 0.58676 0.000331236 0.0646653 -41.5661 13.8001 100.646 -1.99286 36.6204 -3.72556 -0.232109 -2.01507 -0.221775 2.3871 -2.95123 -6.47061 -52.1856 -6.07078 93.8763 0.34826 40.1955 -10.3463 -9.42486 -23.6225 1.26733 -3.97921 1.89379 20.1356 
114.275 94.1014 -58.5308 -59.0462 -56.6067 -154.443 -70.1915 0 88.8779 76.1243 70.1473 17.784 7.23827 21.8026 -4.57628 -131.797 11.0532 -164.936 -147.839 44.5652 -175.572 -1.67297 -20.6942 -36.4138 -129.002 10.0887 -78.7198 11.6071 2.82634 -75.9396 0.420957 0.000577499 0.35866 -1.22898 7.81224 29.8466 -44.5101 -24.3417 156.669 13.4918 2.37787 99.4949 0.58676 0.000331236 0.0646653 -40.747 13.9264 99.7725 -1.98548 36.9857 -3.45058 -0.316755 -2.1773 -0.225515 2.38636 -3.09254 -6.10557 -51.5544 -5.51524 93.7739 0.471356 40.997 -9.82918 -8.51087 -26.6331 1.35452 -6.38785 10.5179 19.67 
114.179 94.1617 -58.3975 -57.4904 -56.8897 -152.609 -70.1915 0 88.8779 75.5585 69.8686 18.3319 6.29065 21.4432 -3.65478 -131.487 11.4384 -163.748 -148.711 44.8312 -174.436 -1.59534 -20.7136 -35.5939 -125.381 9.37234 -76.7676 7.20273 2.13598 -73.1199 0.420957 0.000577499 0.35866 -1.19662 7.73491 29.5964 -43.7796 -24.6955 156.925 13.8552 2.39147 99.2981 0.58676 0.000331236 0.0646653 -39.6763 13.6457 98.4776 -2.0041 37.2183 -3.47539 -0.708211 -2.16946 -0.181788 2.17412 -2.25472 -6.85704 -51.0239 -5.46987 92.6763 0.508148 41.4264 -9.74718 -7.99077 -28.9948 1.43389 -8.73571 17.2986 20.8988 
114.035 94.405 -58.025 -55.9604 -57.5216 -150.945 -70.1915 0 88.8779 75.0705 69.6445 18.2907 5.28005 20.9597 -2.09284 -132.489 11.777 -160.982 -151.213 45.1231 -172.398 -1.10349 -19.2219 -34.304 -121.578 9.9359 -73.2247 6.03189 2.36858 -68.3094 0.420957 0.000577499 0.35866 -1.15539 7.96688 28.5279 -42.6605 -25.0842 157.795 16.1683 2.6207 98.6924 0.58676 0.000331236 0.0646653 -39.3581 13.3106 97.7657 -1.99009 36.7442 -3.67955 -1.68528 -1.99115 -0.0575277 2.35708 -1.8997 -8.79963 -51.247 -5.81281 91.1993 0.45916 41.057 -9.99194 -7.5655 -30.1245 1.50598 -10.4937 21.6193 22.1884 
114.043 94.77 -57.5589 -52.866 -59.0786 -147.663 -70.1915 0 88.8779 76.4921 69.8845 17.9049 4.37058 21.5314 -3.30253 -133.162 12.1204 -162.496 -150.818 45.8407 -173.344 -1.07889 -18.7829 -35.3018 -117.43 10.1217 -68.0814 5.41073 2.55374 -64.5733 0.420957 0.000577499 0.35866 -1.03437 7.09171 28.8712 -43.0397 -25.2537 157.448 18.2248 3.05948 98.9293 0.58676 0.000331236 0.0646653 -38.5907 13.6797 99.2563 -2.31084 36.4593 -6.89203 -3.08739 -1.6786 0.132338 2.16373 -0.883729 -9.86135 -52.2843 -6.76035 88.6455 0.240027 39.2677 -9.97847 -6.16513 -29.8662 1.70137 -11.2977 23.2789 22.9455 
113.742 94.9757 -56.849 -47.7359 -61.0826 -141.285 -70.1915 0 88.8779 74.247 69.7787 21.9163 4.79457 22.1079 -4.68386 -134.113 12.784 -163.797 -153.408 47.3517 -171.645 -0.883194 -17.8718 -35.7485 -114.806 13.4582 -60.7934 3.27926 1.7721 -61.7597 0.420957 0.000577499 0.35866 -0.989237 6.94523 28.5667 -44.8461 -26.3898 156.979 19.69 3.25229 98.7386 0.58676 0.000331236 0.0646653 -36.1206 15.3801 100.381 -2.91188 38.3821 -11.4609 -5.39736 -2.11644 0.343268 1.91645 -0.792745 -8.63602 -54.2677 -7.22128 83.1574 -0.697731 36.0902 -7.85732 -7.01788 -27.8271 1.54175 -9.68518 19.2448 21.9626 
113.639 94.6746 -56.047 -40.2886 -63.9252 -131.687 -70.1915 0 88.8779 74.1244 70.6097 23.4414 4.00431 23.1933 -4.96341 -134.307 13.9601 -167.234 -155.444 49.5232 -170.666 -0.57876 -16.7095 -35.5971 -114.882 18.6899 -52.8995 4.57677 2.73289 -59.1466 0.420957 0.000577499 0.35866 -1.03268 7.29459 28.3625 -49.3799 -28.5236 154.299 20.5055 3.28087 98.4337 0.58676 0.000331236 0.0646653 -31.5983 17.0843 100.057 -3.77609 43.6601 -15.0336 -5.30035 -2.17965 0.324571 3.38905 -6.07768 -4.52224 -57.1892 -7.15188 78.6175 0.205416 32.9157 -9.88804 -9.04266 -25.9342 1.29642 -7.76421 12.1463 22.8278 
113.501 94.1156 -54.995 -30.541 -67.2686 -118.977 -70.1915 0 88.8779 74.5908 72.1827 23.8981 2.83728 24.7577 -4.50933 -133.691 15.5424 -172.661 -157.118 52.2705 -170.633 -0.21824 -15.3586 -35.1618 -116.667 22.5569 -44.4618 5.79148 3.69637 -57.3744 0.420957 0.000577499 0.35866 -0.779646 6.88126 25.5701 -54.8215 -33.0799 152.232 23.0255 3.37637 97.6312 0.58676 0.000331236 0.0646653 -26.3556 18.3933 98.5513 -4.17862 50.7152 -9.28712 -1.90002 -3.59505 -0.186059 2.18593 -4.93765 0.578268 -61.4087 -4.79836 77.9741 1.8428 29.2361 -15.9973 -9.25048 -23.6519 1.2815 -5.45037 5.86449 21.4278 
